<?xml version="1.0" standalone="no"?>
<!DOCTYPE svg PUBLIC "-//W3C//DTD SVG 20010904//EN"
 "http://www.w3.org/TR/2001/REC-SVG-20010904/DTD/svg10.dtd">
<svg version="1.0" xmlns="http://www.w3.org/2000/svg"
 width="310.000000pt" height="310.000000pt" viewBox="0 0 310.000000 310.000000"
 preserveAspectRatio="xMidYMid meet">
<metadata>
Created by potrace 1.11, written by Peter Selinger 2001-2013
</metadata>
<g transform="translate(0.000000,310.000000) scale(0.100000,-0.100000)"
fill="#000000" stroke="none">
<path d="M0 1550 l0 -1550 1550 0 1550 0 0 1550 0 1550 -1550 0 -1550 0 0
-1550z m3005 0 l0 -1455 -1455 0 -1455 0 -3 1445 c-1 795 0 1451 3 1458 3 10
300 12 1457 10 l1453 -3 0 -1455z"/>
<path d="M1472 1553 l3 -1368 709 -3 c515 -1 713 1 722 9 12 10 14 236 14
1370 l0 1359 -725 0 -725 0 2 -1367z m779 531 c99 -18 226 -76 287 -129 62
-54 131 -156 160 -238 35 -97 43 -295 17 -396 -45 -170 -159 -312 -307 -381
-123 -57 -226 -71 -498 -68 l-215 3 -3 613 -2 612 239 0 c176 0 261 -4 322
-16z"/>
<path d="M1868 1955 c-5 -5 -8 -217 -8 -473 l0 -464 173 4 c154 4 180 7 244
30 132 47 217 132 258 258 23 68 26 273 6 335 -53 159 -147 248 -306 290 -65
17 -355 33 -367 20z"/>
<path d="M633 2106 c-195 -48 -338 -204 -387 -423 -21 -96 -21 -300 0 -396 62
-274 267 -437 549 -437 272 0 472 154 540 415 23 87 31 268 15 362 -41 259
-175 420 -397 477 -73 19 -245 20 -320 2z m265 -130 c103 -28 203 -110 243
-200 95 -216 65 -530 -65 -673 -19 -22 -64 -55 -98 -74 -62 -33 -65 -34 -183
-34 -111 0 -124 2 -176 28 -97 47 -167 136 -205 262 -25 80 -26 325 -2 400 37
120 109 219 186 259 84 44 206 57 300 32z"/>
</g>
</svg>
