<?xml version="1.0" standalone="no"?>
<!DOCTYPE svg PUBLIC "-//W3C//DTD SVG 20010904//EN"
 "http://www.w3.org/TR/2001/REC-SVG-20010904/DTD/svg10.dtd">
<svg version="1.0" xmlns="http://www.w3.org/2000/svg"
 width="512.000000pt" height="512.000000pt" viewBox="0 0 512.000000 512.000000"
 preserveAspectRatio="xMidYMid meet">
<metadata>
Created by potrace 1.11, written by Peter Selinger 2001-2013
</metadata>
<g transform="translate(0.000000,512.000000) scale(0.100000,-0.100000)"
fill="#000000" stroke="none">
<path d="M0 2560 l0 -2560 2560 0 2560 0 0 2560 0 2560 -2560 0 -2560 0 0
-2560z m5000 0 l0 -2440 -2440 0 -2440 0 0 2440 0 2440 2440 0 2440 0 0 -2440z"/>
<path d="M760 3815 l0 -975 145 0 145 0 2 803 3 802 98 -195 c54 -107 250
-468 435 -802 l336 -608 208 0 208 0 0 975 0 975 -150 0 -150 0 0 -797 0 -798
-128 245 c-70 135 -267 494 -436 798 l-308 552 -204 0 -204 0 0 -975z"/>
<path d="M2930 3815 l0 -975 155 0 155 0 2 476 3 476 430 -476 430 -476 200 0
199 0 -46 48 c-25 26 -240 256 -477 511 l-432 465 193 195 c106 108 312 316
458 464 l265 267 -190 -1 -190 0 -420 -450 -420 -451 -3 451 -2 451 -155 0
-155 0 0 -975z"/>
<path d="M240 1410 l0 -1170 2320 0 2320 0 0 1170 0 1170 -2320 0 -2320 0 0
-1170z m1610 971 c170 -50 334 -162 421 -288 131 -190 195 -490 169 -794 -38
-457 -268 -760 -651 -860 -105 -27 -320 -37 -439 -20 -474 70 -722 444 -697
1051 13 294 93 510 252 678 126 134 260 207 455 248 104 21 394 13 490 -15z
m1976 -14 c343 -63 565 -208 675 -442 95 -202 122 -504 70 -761 -53 -258 -193
-454 -408 -571 -231 -126 -453 -163 -985 -163 l-248 0 0 981 0 981 408 -5
c295 -4 429 -9 488 -20z"/>
<path d="M1401 2165 c-270 -76 -421 -347 -421 -754 0 -210 41 -406 107 -521
40 -69 127 -154 192 -189 32 -17 89 -38 127 -47 91 -21 246 -14 327 14 123 45
234 151 298 287 68 144 100 374 81 577 -33 350 -146 540 -368 619 -79 28 -265
36 -343 14z"/>
<path d="M3240 1411 l0 -751 123 0 c260 0 450 34 582 103 89 46 194 155 238
247 70 143 97 324 78 527 -32 345 -161 518 -446 594 -69 19 -115 23 -327 27
l-248 4 0 -751z"/>
</g>
</svg>
